<svg width="542" height="168" viewBox="0 0 542 168" fill="none" xmlns="http://www.w3.org/2000/svg">
<path d="M385.552 68.6055C385.357 68.4098 385.361 68.089 385.555 67.8934C396.349 57.0583 401.919 51.4666 412.712 40.6315C412.906 40.4359 413.226 40.4323 413.421 40.6279L446.511 73.8467L479.601 107.066C479.796 107.261 479.796 107.578 479.601 107.774L452.438 135.043C452.243 135.239 451.927 135.239 451.732 135.043L385.552 68.6055Z" fill="#00C4B3"/>
<path d="M413.428 135.026C413.233 135.222 412.914 135.218 412.719 135.022C401.923 124.19 396.351 118.6 385.555 107.768C385.36 107.572 385.357 107.251 385.552 107.056L418.65 73.8454L451.749 40.6351C451.944 40.4395 452.26 40.4395 452.455 40.6351L479.625 67.8971C479.82 68.0927 479.82 68.4098 479.625 68.6054L413.428 135.026Z" fill="#00C4B3"/>
<path d="M284.5 68.6055C284.305 68.4098 284.309 68.089 284.504 67.8934C295.297 57.0583 300.867 51.4666 311.66 40.6315C311.855 40.4359 312.174 40.4323 312.369 40.6279L345.459 73.8467L378.549 107.066C378.744 107.261 378.744 107.578 378.549 107.774L351.385 135.043C351.191 135.239 350.875 135.239 350.68 135.043L284.5 68.6055Z" fill="#00C4B3"/>
<path d="M312.376 135.026C312.181 135.222 311.861 135.218 311.666 135.022C300.87 124.19 295.299 118.6 284.503 107.768C284.308 107.572 284.305 107.251 284.5 107.056L317.598 73.8454L350.697 40.6351C350.892 40.4395 351.208 40.4395 351.403 40.6351L378.573 67.8971C378.768 68.0927 378.768 68.4098 378.573 68.6054L312.376 135.026Z" fill="#00C4B3"/>
<g clip-path="url(#clip0_30_314)">
<path d="M204.284 43.9231C204.793 43.7277 207.678 42.6005 210.704 41.4282C216.098 39.324 216.209 39.2865 216.755 39.2865L217.308 39.2789L228.266 56.4126C234.295 65.8286 239.24 73.5388 239.262 73.5464C239.284 73.5464 240.184 71.4272 241.269 68.8271C243.682 63.0632 247.394 54.1882 250.641 46.418C251.984 43.2167 253.201 40.3009 253.349 39.9402L253.614 39.2789H254.205C254.758 39.2789 255.445 39.4668 265.753 42.4577L276.712 45.6289L276.734 46.3579L276.756 47.0793L275.575 49.8146C274.933 51.3176 273.089 55.586 271.487 59.3058C268.654 65.8737 266.196 71.5925 261.016 83.6161C259.636 86.8174 257.267 92.3107 255.754 95.8277L255.523 96.3643L255.523 96.365C254.002 99.8934 251.726 105.172 250.331 108.415C243.896 123.347 242.597 126.375 240.701 130.771L238.873 135.399H238.258C237.903 135.414 225.157 135.399 225.157 135.399L212.293 135.399L219.116 118.109C225.861 104.056 227.233 101.186 227.233 101.148C227.233 101.126 219.78 89.4626 210.667 75.2297L194.1 49.3562V48.6123V47.8758L198.727 46.0798C201.28 45.0954 203.774 44.1185 204.284 43.9231Z" fill="#00C4B3"/>
</g>
<path d="M61.0314 33.7672C61.0314 33.4911 61.2605 33.2672 61.5367 33.2672C78.2427 33.2672 86.8422 33.2672 103.548 33.2672C103.824 33.2672 104.054 33.4911 104.054 33.7672V84.3669V134.967C104.054 135.243 103.83 135.467 103.554 135.467H61.5314C61.2552 135.467 61.0314 135.243 61.0314 134.967V33.7672Z" fill="#00C4B3"/>
<path d="M74.3835 63.154C74.1889 62.9581 74.1904 62.6391 74.385 62.4432C84.6903 52.0711 92.9158 43.7924 103.221 33.4204C103.416 33.2245 103.733 33.223 103.927 33.4189L141.346 71.08L175.625 105.581C175.82 105.777 175.82 106.094 175.625 106.29L146.786 135.316C146.592 135.512 146.276 135.512 146.081 135.316L74.3835 63.154Z" fill="#00C4B3"/>
<path d="M145.958 33.7632C145.958 33.487 146.187 33.2632 146.463 33.2632C162.769 33.2632 171.169 33.2632 187.475 33.2632C187.751 33.2632 187.98 33.487 187.98 33.7632V84.3629V134.963C187.98 135.239 187.756 135.463 187.48 135.463H146.458C146.182 135.463 145.958 135.239 145.958 134.963V33.7632Z" fill="#00C4B3"/>
<path d="M0.139648 83.9238V75.8347C7.4742 75.8347 12.5908 74.3126 15.4895 71.2683C18.4321 68.224 19.9034 63.1358 19.9034 56.0035V35.1285C19.9034 29.1269 20.4744 23.9299 21.6163 19.5374C22.8021 15.145 24.7126 11.5136 27.3478 8.64332C29.9829 5.773 33.4965 3.64202 37.8884 2.25035C42.2804 0.858678 47.7044 0.162842 54.1606 0.162842V12.9488C49.0659 12.9488 45.0473 13.7316 42.1047 15.2972C39.206 16.8628 37.1418 19.2983 35.9121 22.6035C34.7262 25.8652 34.1333 30.0402 34.1333 35.1285V61.2222C34.1333 64.6144 33.6722 67.7022 32.7499 70.4855C31.8715 73.2688 30.2245 75.6608 27.8089 77.6613C25.3933 79.6618 21.9457 81.2057 17.4659 82.2929C13.03 83.3802 7.2546 83.9238 0.139648 83.9238ZM54.1606 167.163C47.7044 167.163 42.2804 166.467 37.8884 165.075C33.4965 163.684 29.9829 161.553 27.3478 158.682C24.7126 155.812 22.8021 152.181 21.6163 147.788C20.4744 143.396 19.9034 138.199 19.9034 132.197V111.322C19.9034 104.19 18.4321 99.1016 15.4895 96.0574C12.5908 93.0131 7.4742 91.491 0.139648 91.491V83.4019C7.2546 83.4019 13.03 83.9455 17.4659 85.0328C21.9457 86.12 25.3933 87.6639 27.8089 89.6644C30.2245 91.6649 31.8715 94.0569 32.7499 96.8402C33.6722 99.6235 34.1333 102.711 34.1333 106.103V132.197C34.1333 137.285 34.7262 141.46 35.9121 144.722C37.1418 147.984 39.206 150.398 42.1047 151.963C45.0473 153.572 49.0659 154.377 54.1606 154.377V167.163ZM0.139648 91.491V75.8347H15.6871V91.491H0.139648Z" fill="#0075C9"/>
<path d="M541.14 83.4019V91.491C533.805 91.491 528.666 93.0131 525.724 96.0574C522.825 99.1016 521.376 104.19 521.376 111.322V132.197C521.376 138.199 520.783 143.396 519.597 147.788C518.455 152.181 516.567 155.812 513.931 158.682C511.296 161.553 507.783 163.684 503.391 165.075C498.999 166.467 493.575 167.163 487.119 167.163V154.377C492.213 154.377 496.21 153.572 499.109 151.963C502.051 150.398 504.115 147.984 505.301 144.722C506.531 141.46 507.146 137.286 507.146 132.197V106.103C507.146 102.711 507.585 99.6235 508.464 96.8402C509.386 94.0569 511.055 91.6649 513.47 89.6644C515.886 87.6639 519.312 86.12 523.747 85.0328C528.227 83.9455 534.025 83.4019 541.14 83.4019ZM487.119 0.162842C493.575 0.162842 498.999 0.858678 503.391 2.25035C507.783 3.64202 511.296 5.773 513.931 8.64332C516.567 11.5136 518.455 15.145 519.597 19.5374C520.783 23.9299 521.376 29.1269 521.376 35.1285V56.0035C521.376 63.1358 522.825 68.224 525.724 71.2683C528.666 74.3126 533.805 75.8347 541.14 75.8347V83.9238C534.025 83.9238 528.227 83.3802 523.747 82.2929C519.312 81.2057 515.886 79.6618 513.47 77.6613C511.055 75.6608 509.386 73.2688 508.464 70.4855C507.585 67.7022 507.146 64.6144 507.146 61.2222V35.1285C507.146 30.0402 506.531 25.8652 505.301 22.6035C504.115 19.2983 502.051 16.8628 499.109 15.2972C496.21 13.7316 492.213 12.9488 487.119 12.9488V0.162842ZM541.14 75.8347V91.491H525.592V75.8347H541.14Z" fill="#0075C9"/>
<defs>
<clipPath id="clip0_30_314">
<rect width="82.6486" height="96.1891" fill="white" transform="translate(194.1 39.2789)"/>
</clipPath>
</defs>
</svg>
