<svg width="94" height="94" viewBox="0 0 94 94" fill="none" xmlns="http://www.w3.org/2000/svg">
<path d="M12.2242 47.7071C11.8337 47.3166 11.8337 46.6834 12.2242 46.2929L27.0977 31.4194C27.4882 31.0289 28.1214 31.0289 28.5119 31.4194L43.3854 46.2929C43.7759 46.6834 43.7759 47.3166 43.3854 47.7071L28.5119 62.5806C28.1214 62.9711 27.4882 62.9711 27.0977 62.5806L12.2242 47.7071Z" fill="url(#paint0_linear_20_18)"/>
<rect x="61.4247" y="16.2877" width="23.0342" height="23.0342" rx="1" transform="rotate(-45 61.4247 16.2877)" fill="url(#paint1_linear_20_18)"/>
<rect y="16.2877" width="23.0342" height="23.0342" rx="1" transform="rotate(-45 0 16.2877)" fill="url(#paint2_linear_20_18)"/>
<rect y="77.7123" width="23.0342" height="23.0342" rx="1" transform="rotate(-45 0 77.7123)" fill="url(#paint3_linear_20_18)"/>
<rect x="61.4247" y="77.7123" width="23.0342" height="23.0342" rx="1" transform="rotate(-45 61.4247 77.7123)" fill="url(#paint4_linear_20_18)"/>
<rect x="30.7123" y="27.8048" width="23.0342" height="23.0342" rx="1" transform="rotate(-45 30.7123 27.8048)" fill="url(#paint5_linear_20_18)"/>
<path d="M50.6146 47.7071C50.2241 47.3166 50.2241 46.6834 50.6146 46.2929L65.4881 31.4194C65.8786 31.0289 66.5118 31.0289 66.9023 31.4194L81.7758 46.2929C82.1663 46.6834 82.1663 47.3166 81.7758 47.7071L66.9023 62.5806C66.5118 62.9711 65.8786 62.9711 65.4881 62.5806L50.6146 47.7071Z" fill="url(#paint6_linear_20_18)"/>
<path d="M31.4194 66.9023C31.0289 66.5118 31.0289 65.8786 31.4194 65.4881L46.2929 50.6146C46.6834 50.2241 47.3166 50.2241 47.7071 50.6146L62.5806 65.4881C62.9711 65.8786 62.9711 66.5118 62.5806 66.9023L47.7071 81.7758C47.3166 82.1663 46.6834 82.1663 46.2929 81.7758L31.4194 66.9023Z" fill="url(#paint7_linear_20_18)"/>
<defs>
<linearGradient id="paint0_linear_20_18" x1="42.2295" y1="47.988" x2="13.4366" y2="47.988" gradientUnits="userSpaceOnUse">
<stop stop-color="#000AFF" stop-opacity="0.62"/>
<stop offset="1" stop-color="#FF0000"/>
</linearGradient>
<linearGradient id="paint1_linear_20_18" x1="63.4406" y1="27.8447" x2="82.4429" y2="27.8447" gradientUnits="userSpaceOnUse">
<stop stop-color="#FF0000"/>
<stop offset="1" stop-color="#FFD600"/>
</linearGradient>
<linearGradient id="paint2_linear_20_18" x1="11.5171" y1="18.3436" x2="11.5171" y2="37.3459" gradientUnits="userSpaceOnUse">
<stop stop-color="#FFD600"/>
<stop offset="1" stop-color="#FF0000"/>
</linearGradient>
<linearGradient id="paint3_linear_20_18" x1="2.01599" y1="89.2694" x2="21.0183" y2="89.2694" gradientUnits="userSpaceOnUse">
<stop stop-color="#FFD600"/>
<stop offset="1" stop-color="#FF0000"/>
</linearGradient>
<linearGradient id="paint4_linear_20_18" x1="72.9418" y1="98.7705" x2="72.9418" y2="79.7683" gradientUnits="userSpaceOnUse">
<stop stop-color="#FFD600"/>
<stop offset="1" stop-color="#FF0000"/>
</linearGradient>
<linearGradient id="paint5_linear_20_18" x1="50.3733" y1="29.8607" x2="32.7283" y2="47.5057" gradientUnits="userSpaceOnUse">
<stop stop-color="#FF0000"/>
<stop offset="1" stop-color="#000AFF" stop-opacity="0.62"/>
</linearGradient>
<linearGradient id="paint6_linear_20_18" x1="76.7808" y1="46.0685" x2="55.6661" y2="46.0685" gradientUnits="userSpaceOnUse">
<stop stop-color="#FF0000"/>
<stop offset="1" stop-color="#000AFF" stop-opacity="0.62"/>
</linearGradient>
<linearGradient id="paint7_linear_20_18" x1="47.988" y1="74.8613" x2="47.988" y2="55.6661" gradientUnits="userSpaceOnUse">
<stop stop-color="#FF0000"/>
<stop offset="1" stop-color="#000AFF" stop-opacity="0.62"/>
</linearGradient>
</defs>
</svg>
