<svg width="541" height="167" viewBox="0 0 541 167" fill="none" xmlns="http://www.w3.org/2000/svg">
<path d="M385.175 64.6759C384.98 64.4805 384.984 64.16 385.179 63.9645C395.969 53.1538 401.537 47.5745 412.327 36.7637C412.522 36.5683 412.842 36.5647 413.037 36.7602L446.118 69.9052L479.199 103.05C479.394 103.246 479.394 103.563 479.199 103.758L452.044 130.966C451.849 131.161 451.532 131.161 451.337 130.966L385.175 64.6759Z" fill="#00C4B3"/>
<path d="M413.037 130.966C412.842 131.162 412.522 131.158 412.327 130.962C401.537 120.152 395.969 114.572 385.179 103.762C384.984 103.566 384.98 103.246 385.175 103.05L418.256 69.9052L451.337 36.7601C451.532 36.5647 451.849 36.5647 452.044 36.7601L479.199 63.9681C479.394 64.1636 479.394 64.4805 479.199 64.6759L413.037 130.966Z" fill="#00C4B3"/>
<path d="M283.797 64.6759C283.602 64.4805 283.606 64.16 283.801 63.9645C294.591 53.1538 300.159 47.5745 310.949 36.7637C311.144 36.5683 311.464 36.5647 311.659 36.7602L344.74 69.9052L377.821 103.05C378.016 103.246 378.016 103.563 377.821 103.758L350.665 130.966C350.47 131.161 350.154 131.161 349.959 130.966L283.797 64.6759Z" fill="#00C4B3"/>
<path d="M311.659 130.966C311.463 131.162 311.144 131.158 310.949 130.962C300.159 120.152 294.59 114.572 283.8 103.762C283.605 103.566 283.602 103.246 283.797 103.05L316.878 69.9052L349.959 36.7601C350.154 36.5647 350.47 36.5647 350.665 36.7601L377.821 63.9681C378.016 64.1636 378.016 64.4805 377.821 64.6759L311.659 130.966Z" fill="#00C4B3"/>
<g clip-path="url(#clip0_30_314)">
<path d="M204.368 43.0089C204.877 42.8139 207.761 41.6888 210.785 40.5188C216.176 38.4188 216.287 38.3813 216.832 38.3813L217.386 38.3738L228.338 55.474C234.364 64.8717 239.306 72.5669 239.328 72.5744C239.35 72.5744 240.25 70.4593 241.334 67.8643C243.746 62.1117 247.456 53.254 250.701 45.4989C252.043 42.3038 253.26 39.3938 253.408 39.0338L253.673 38.3738H254.263C254.816 38.3738 255.502 38.5613 265.806 41.5463L276.759 44.7114L276.781 45.4389L276.803 46.1589L275.623 48.8889C274.981 50.389 273.137 54.649 271.537 58.3616C268.705 64.9167 266.248 70.6243 261.071 82.6245C259.692 85.8196 257.324 91.3021 255.812 94.8122L255.581 95.3478L255.576 95.3589C254.056 98.8803 251.785 104.142 250.391 107.375C243.96 122.278 242.662 125.3 240.766 129.688L238.939 134.306H238.324C237.97 134.321 225.231 134.306 225.231 134.306L212.373 134.306L219.193 117.05C225.934 103.025 227.306 100.16 227.306 100.122C227.306 100.1 219.856 88.4596 210.748 74.2544L194.19 48.4314V47.6889V46.9539L198.814 45.1614C201.366 44.1789 203.859 43.2039 204.368 43.0089Z" fill="#00C4B3"/>
</g>
<path d="M61.4487 33.125C61.4487 32.8489 61.6778 32.625 61.954 32.625C78.3247 32.625 86.7563 32.625 103.127 32.625C103.403 32.625 103.632 32.8489 103.632 33.125V83.5001V133.875C103.632 134.151 103.408 134.375 103.132 134.375H61.9487C61.6726 134.375 61.4487 134.151 61.4487 133.875V33.125Z" fill="#00C4B3"/>
<path d="M73.6727 62.3995C73.478 62.2037 73.4794 61.8849 73.6742 61.6891C83.9739 51.3377 92.1949 43.0753 102.495 32.7238C102.689 32.5281 103.007 32.5266 103.201 32.7224L140.896 70.6066L175.428 105.312C175.622 105.508 175.622 105.825 175.428 106.021L146.604 134.989C146.41 135.185 146.094 135.185 145.899 134.989L73.6727 62.3995Z" fill="#00C4B3"/>
<path d="M145.358 33.679C145.358 33.4028 145.587 33.179 145.863 33.179C162.234 33.179 170.665 33.179 187.036 33.179C187.312 33.179 187.541 33.4028 187.541 33.679V84.0541V134.429C187.541 134.705 187.317 134.929 187.041 134.929H145.858C145.582 134.929 145.358 134.705 145.358 134.429V33.679Z" fill="#00C4B3"/>
<path d="M0.139648 83.7604V75.6871C7.47041 75.6871 12.5844 74.1679 15.4816 71.1296C18.4227 68.0913 19.8932 63.0129 19.8932 55.8945V35.0603C19.8932 29.0704 20.4639 23.8835 21.6052 19.4997C22.7904 15.1158 24.6999 11.4915 27.3337 8.62677C29.9675 5.76206 33.4793 3.63523 37.869 2.24628C42.2586 0.857321 47.6799 0.162842 54.1327 0.162842V12.9238C49.0407 12.9238 45.0241 13.7051 42.083 15.2677C39.1859 16.8303 37.1227 19.2609 35.8936 22.5597C34.7084 25.8151 34.1158 29.9819 34.1158 35.0603V61.1031C34.1158 64.4887 33.6549 67.5704 32.733 70.3483C31.8551 73.1262 30.209 75.5135 27.7946 77.5101C25.3803 79.5067 21.9344 81.0476 17.4569 82.1327C13.0234 83.2178 7.25093 83.7604 0.139648 83.7604ZM54.1327 166.837C47.6799 166.837 42.2586 166.143 37.869 164.754C33.4793 163.365 29.9675 161.238 27.3337 158.373C24.6999 155.508 22.7904 151.884 21.6052 147.5C20.4639 143.116 19.8932 137.93 19.8932 131.94V111.105C19.8932 103.987 18.4227 98.9087 15.4816 95.8703C12.5844 92.832 7.47041 91.3128 0.139648 91.3128V83.2395C7.25093 83.2395 13.0234 83.7821 17.4569 84.8672C21.9344 85.9523 25.3803 87.4932 27.7946 89.4898C30.209 91.4864 31.8551 93.8737 32.733 96.6516C33.6549 99.4295 34.1158 102.511 34.1158 105.897V131.94C34.1158 137.018 34.7084 141.185 35.8936 144.44C37.1227 147.696 39.1859 150.105 42.083 151.667C45.0241 153.273 49.0407 154.076 54.1327 154.076V166.837ZM0.139648 91.3128V75.6871H15.6791V91.3128H0.139648Z" fill="#0075C9"/>
<path d="M540.86 83.2395V91.3128C533.53 91.3128 528.394 92.832 525.453 95.8703C522.555 98.9087 521.107 103.987 521.107 111.105V131.94C521.107 137.93 520.514 143.116 519.329 147.5C518.188 151.884 516.3 155.508 513.666 158.373C511.032 161.238 507.521 163.365 503.131 164.754C498.741 166.143 493.32 166.837 486.867 166.837V154.076C491.959 154.076 495.954 153.273 498.851 151.667C501.792 150.105 503.855 147.696 505.041 144.44C506.27 141.185 506.884 137.018 506.884 131.94V105.897C506.884 102.511 507.323 99.4295 508.201 96.6516C509.123 93.8737 510.791 91.4864 513.205 89.4898C515.62 87.4932 519.044 85.9523 523.477 84.8672C527.955 83.7821 533.749 83.2395 540.86 83.2395ZM486.867 0.162842C493.32 0.162842 498.741 0.857321 503.131 2.24628C507.521 3.63523 511.032 5.76206 513.666 8.62677C516.3 11.4915 518.188 15.1158 519.329 19.4997C520.514 23.8835 521.107 29.0704 521.107 35.0603V55.8945C521.107 63.0129 522.555 68.0913 525.453 71.1296C528.394 74.1679 533.53 75.6871 540.86 75.6871V83.7604C533.749 83.7604 527.955 83.2178 523.477 82.1327C519.044 81.0476 515.62 79.5067 513.205 77.5101C510.791 75.5135 509.123 73.1262 508.201 70.3483C507.323 67.5704 506.884 64.4887 506.884 61.1031V35.0603C506.884 29.9819 506.27 25.8151 505.041 22.5597C503.855 19.2609 501.792 16.8303 498.851 15.2677C495.954 13.7051 491.959 12.9238 486.867 12.9238V0.162842ZM540.86 75.6871V91.3128H525.321V75.6871H540.86Z" fill="#0075C9"/>
<defs>
<clipPath id="clip0_30_314">
<rect width="82.6059" height="96.0015" fill="white" transform="translate(194.19 38.3738)"/>
</clipPath>
</defs>
</svg>
