<svg width="691" height="400" viewBox="0 0 691 400" fill="currentColor" xmlns="http://www.w3.org/2000/svg">
<path d="M0.578857 198.148V179.012C17.1121 179.012 28.6457 175.411 35.1798 168.21C41.8129 161.008 45.1295 148.971 45.1295 132.099V82.716C45.1295 68.5185 46.4165 56.2243 48.9905 45.8333C51.6636 35.4424 55.9701 26.8519 61.9102 20.0617C67.8503 13.2716 75.7704 8.23047 85.6705 4.93829C95.5707 1.6461 107.797 0 122.351 0V30.2469C110.866 30.2469 101.808 32.0988 95.1746 35.8025C88.6406 39.5062 83.9875 45.2675 81.2155 53.0864C78.5424 60.8024 77.2059 70.679 77.2059 82.716V144.444C77.2059 152.469 76.1664 159.774 74.0874 166.358C72.1073 172.942 68.3948 178.601 62.9497 183.333C57.5046 188.066 49.733 191.718 39.6349 194.29C29.6358 196.862 16.6171 198.148 0.578857 198.148ZM122.351 395.062C107.797 395.062 95.5707 393.415 85.6705 390.123C75.7704 386.831 67.8503 381.79 61.9102 375C55.9701 368.21 51.6636 359.619 48.9905 349.228C46.4165 338.837 45.1295 326.543 45.1295 312.346V262.963C45.1295 246.09 41.8129 234.053 35.1798 226.852C28.6457 219.65 17.1121 216.049 0.578857 216.049V196.913C16.6171 196.913 29.6358 198.199 39.6349 200.771C49.733 203.344 57.5046 206.996 62.9497 211.728C68.3948 216.461 72.1073 222.119 74.0874 228.704C76.1664 235.288 77.2059 242.592 77.2059 250.617V312.346C77.2059 324.383 78.5424 334.259 81.2155 341.975C83.9875 349.691 88.6406 355.401 95.1746 359.105C101.808 362.911 110.866 364.815 122.351 364.815V395.062ZM0.578857 216.049V179.012H35.6253V216.049H0.578857Z" fill="black"/>
<path d="M690.579 201.852V220.988C674.046 220.988 662.462 224.589 655.829 231.79C649.295 238.992 646.028 251.029 646.028 267.901V317.284C646.028 331.482 644.692 343.776 642.019 354.167C639.445 364.558 635.188 373.148 629.248 379.938C623.307 386.728 615.387 391.77 605.487 395.062C595.587 398.354 583.36 400 568.807 400V369.753C580.291 369.753 589.301 367.85 595.835 364.043C602.468 360.339 607.121 354.63 609.794 346.914C612.566 339.198 613.952 329.321 613.952 317.284V255.556C613.952 247.531 614.942 240.226 616.922 233.642C619.001 227.058 622.763 221.399 628.208 216.667C633.653 211.934 641.375 208.282 651.374 205.71C661.472 203.138 674.541 201.852 690.579 201.852ZM568.807 4.93847C583.36 4.93847 595.587 6.58457 605.487 9.87676C615.387 13.1689 623.307 18.2101 629.248 25.0002C635.188 31.7903 639.445 40.3808 642.019 50.7718C644.692 61.1627 646.028 73.457 646.028 87.6545V137.037C646.028 153.91 649.295 165.947 655.829 173.148C662.462 180.35 674.046 183.951 690.579 183.951V203.087C674.541 203.087 661.472 201.801 651.374 199.229C641.375 196.657 633.653 193.004 628.208 188.272C622.763 183.539 619.001 177.881 616.922 171.296C614.942 164.712 613.952 157.408 613.952 149.383V87.6545C613.952 75.6174 612.566 65.7409 609.794 58.0249C607.121 50.206 602.468 44.4446 595.835 40.7409C589.301 37.0372 580.291 35.1854 568.807 35.1854V4.93847ZM690.579 183.951V220.988H655.532V183.951H690.579Z" fill="black"/>
<path d="M94.6697 137.481C94.6697 136.281 95.6081 135.309 96.7628 135.309C115.614 135.309 125.998 135.309 144.849 135.309C146.004 135.309 146.942 136.281 146.942 137.481V200.494V263.506C146.942 264.706 146.006 265.679 144.852 265.679H96.7606C95.6059 265.679 94.6697 264.706 94.6697 263.506V137.481Z" fill="#5865F2"/>
<path d="M110.074 174.233C109.257 173.385 109.259 172.008 110.075 171.159C122.011 158.755 131.771 148.613 143.707 136.21C144.523 135.361 145.848 135.36 146.665 136.209L192.333 183.666L234.082 227.051C234.899 227.9 234.899 229.276 234.082 230.124L200.449 265.076C199.632 265.925 198.308 265.925 197.492 265.076L110.074 174.233Z" fill="#5865F2"/>
<path d="M197.663 137.481C197.663 136.281 198.602 135.309 199.756 135.309C218.608 135.309 228.992 135.309 247.843 135.309C248.998 135.309 249.936 136.281 249.936 137.481V200.494V263.506C249.936 264.706 249 265.679 247.845 265.679H199.754C198.599 265.679 197.663 264.706 197.663 263.506V137.481Z" fill="#5865F2"/>
<path d="M345.579 263.506C345.579 264.706 344.643 265.679 343.488 265.679C323.973 265.679 304.458 265.679 284.942 265.679C283.788 265.679 282.851 264.706 282.851 263.506V144.513C282.851 142.22 285.826 141.49 286.813 143.541L312.345 196.607C313.115 198.208 315.315 198.208 316.085 196.607L341.618 143.541C342.604 141.49 345.579 142.22 345.579 144.513V263.506Z" fill="#5865F2"/>
<path d="M367.965 190.595C367.149 189.746 367.153 188.365 367.968 187.515C378.817 176.218 384.907 169.876 395.756 158.579C396.572 157.729 397.898 157.726 398.713 158.575L434.135 195.461L469.556 232.347C470.372 233.196 470.372 234.574 469.556 235.423L441.762 264.367C440.946 265.216 439.623 265.216 438.808 264.367L367.965 190.595Z" fill="#5865F2"/>
<path d="M398.713 264.367C397.898 265.216 396.572 265.213 395.756 264.363C384.907 253.066 378.817 246.724 367.968 235.427C367.152 234.577 367.149 233.196 367.965 232.347L403.386 195.461L438.807 158.575C439.623 157.726 440.946 157.726 441.761 158.575L469.556 187.519C470.372 188.368 470.372 189.746 469.556 190.595L398.713 264.367Z" fill="#5865F2"/>
<path d="M493.42 190.595C492.604 189.746 492.607 188.365 493.423 187.515C504.272 176.218 510.362 169.876 521.211 158.579C522.027 157.729 523.353 157.726 524.168 158.575L559.59 195.461L595.011 232.347C595.827 233.196 595.827 234.574 595.011 235.423L567.216 264.367C566.401 265.216 565.078 265.216 564.262 264.367L493.42 190.595Z" fill="#5865F2"/>
<path d="M524.168 264.367C523.352 265.216 522.026 265.213 521.21 264.363C510.361 253.066 504.272 246.724 493.423 235.427C492.607 234.577 492.603 233.196 493.419 232.347L528.841 195.461L564.262 158.575C565.078 157.726 566.4 157.726 567.216 158.575L595.011 187.519C595.826 188.368 595.826 189.746 595.011 190.595L524.168 264.367Z" fill="#5865F2"/>
</svg>
