<svg width="512" height="512" viewBox="0 0 512 512" fill="none" xmlns="http://www.w3.org/2000/svg">
<g id="Nyxx_Logo_Squared_512x512" clip-path="url(#clip0_30_334)">
<g id="Nyxx_Logo_Squared">
<path id="bracket_left" d="M0 255.57V238.95C15.0913 238.95 25.619 235.823 31.5833 229.568C37.6378 223.313 40.6651 212.859 40.6651 198.205V155.315C40.6651 142.984 41.8399 132.306 44.1895 123.281C46.6294 114.256 50.5603 106.795 55.9823 100.898C61.4044 95.0007 68.6337 90.6223 77.6704 87.763C86.7071 84.9037 97.8674 83.474 111.151 83.474V109.744C100.669 109.744 92.4002 111.352 86.3456 114.569C80.3814 117.786 76.1342 122.79 73.6039 129.581C71.164 136.282 69.944 144.86 69.944 155.315V208.927C69.944 215.897 68.9952 222.241 67.0975 227.959C65.2901 233.678 61.9014 238.593 56.9312 242.703C51.961 246.813 44.8672 249.985 35.6498 252.219C26.5227 254.453 14.6394 255.57 0 255.57ZM111.151 426.593C97.8674 426.593 86.7071 425.164 77.6704 422.304C68.6337 419.445 61.4044 415.067 55.9823 409.169C50.5603 403.272 46.6294 395.811 44.1895 386.786C41.8399 377.762 40.6651 367.084 40.6651 354.753V311.863C40.6651 297.209 37.6378 286.754 31.5833 280.5C25.619 274.245 15.0913 271.117 0 271.117V254.498C14.6394 254.498 26.5227 255.615 35.6498 257.848C44.8672 260.082 51.961 263.254 56.9312 267.365C61.9014 271.475 65.2901 276.389 67.0975 282.108C68.9952 287.827 69.944 294.171 69.944 301.14V354.753C69.944 365.207 71.164 373.785 73.6039 380.487C76.1342 387.188 80.3814 392.147 86.3456 395.364C92.4002 398.67 100.669 400.323 111.151 400.323V426.593ZM0 271.117V238.95H31.9899V271.117H0Z" fill="#0075C9"/>
<path id="bracket_right" d="M512 254.498V271.117C496.909 271.117 486.336 274.245 480.281 280.5C474.317 286.754 471.335 297.209 471.335 311.863V354.753C471.335 367.084 470.115 377.762 467.675 386.786C465.325 395.811 461.44 403.272 456.018 409.169C450.596 415.067 443.366 419.445 434.329 422.304C425.293 425.164 414.132 426.593 400.849 426.593V400.323C411.331 400.323 419.554 398.67 425.519 395.364C431.573 392.147 435.821 387.188 438.26 380.487C440.791 373.785 442.056 365.207 442.056 354.753V301.14C442.056 294.171 442.96 287.827 444.767 282.108C446.665 276.389 450.099 271.475 455.069 267.365C460.039 263.254 467.088 260.082 476.215 257.848C485.432 255.615 497.36 254.498 512 254.498ZM400.849 83.474C414.132 83.474 425.293 84.9037 434.329 87.763C443.366 90.6223 450.596 95.0007 456.018 100.898C461.44 106.795 465.325 114.256 467.675 123.281C470.115 132.306 471.335 142.984 471.335 155.315V198.205C471.335 212.859 474.317 223.313 480.281 229.568C486.336 235.823 496.909 238.95 512 238.95V255.57C497.36 255.57 485.432 254.453 476.215 252.219C467.088 249.985 460.039 246.813 455.069 242.703C450.099 238.593 446.665 233.678 444.767 227.959C442.96 222.241 442.056 215.897 442.056 208.927V155.315C442.056 144.86 440.791 136.282 438.26 129.581C435.821 122.79 431.573 117.786 425.519 114.569C419.554 111.352 411.331 109.744 400.849 109.744V83.474ZM512 238.95V271.117H480.01V238.95H512Z" fill="#0075C9"/>
<g id="Letter_N">
<path id="Vector" d="M126.212 150.801C126.212 150.525 126.442 150.301 126.718 150.301C160.949 150.301 178.315 150.301 212.545 150.301C212.821 150.301 213.052 150.525 213.052 150.801V255.034V359.266C213.052 359.542 212.828 359.766 212.552 359.766H126.712C126.436 359.766 126.212 359.542 126.212 359.266V150.801Z" fill="#22D3C5"/>
<path id="Vector_2" d="M151.004 211.22C150.809 211.025 150.811 210.705 151.006 210.51C172.509 188.898 189.581 171.74 211.085 150.128C211.28 149.933 211.597 149.931 211.792 150.126L289.764 228.491L361.225 300.312C361.42 300.507 361.42 300.825 361.225 301.021L301.143 361.406C300.948 361.601 300.632 361.601 300.437 361.406L151.004 211.22Z" fill="#22D3C5"/>
<path id="Vector_3" d="M298.949 151.941C298.949 151.665 299.18 151.441 299.456 151.441C333.686 151.441 351.052 151.441 385.283 151.441C385.559 151.441 385.789 151.665 385.789 151.941V256.174V360.407C385.789 360.683 385.565 360.907 385.289 360.907H299.449C299.173 360.907 298.949 360.683 298.949 360.407V151.941Z" fill="#22D3C5"/>
</g>
</g>
</g>
<defs>
<clipPath id="clip0_30_334">
<rect width="512" height="512" fill="white"/>
</clipPath>
</defs>
</svg>
